<?xml version="1.0" encoding="UTF-8"?>
<svg version="1.1" viewBox="0 0 1460 1072" width="365" height="268" xmlns="http://www.w3.org/2000/svg">
<path transform="translate(0)" d="m0 0h1460v1072h-1460z" fill="#D8D7D7"/>
<path transform="translate(815,83)" d="m0 0 6 1 25 12 19 9 11 6v6l32-1 7-8 6-7 5-1 5 5 11 17 16 26 12 18 2 7v12l-1 32 4 16 9 24 11 28 8 20v5l-1 1h-8l-16-4-9-3-6-17-8-17-5-8 1-9 4-10 1-4-29 1v31l-2 1-9-6-13-11-11-10-10-7-1 1h-30v13l11 8 15 10 19 13-2 2-43 8-1 19 23-5 11-3h7l-3 9-9 17-9 20-2 6 8-1h30l-1-4-4-2-3-3 1-4 10-9 20-20 3 1 4 41h29v-21l4-1 8 9 7 8 11 8 3 7 1 1v7l-7 9-9 10-8 7-3 2-1 5-1 48-1 28-2 86-1 62-8 16-13 21-12 19-9 15-6 9-1 4h51v-77l1-7h1v84l120-2 34 1v1h-33l-1 2v-2l-28 1-51 1h-41v117l61-1h416l1-236 2-1v304l-1 53h11v120h-1329v-72l-5-1-1-2v-27l1-15 3-3 1-29v-90h-71l-25-1v-1l98-1 49 1 97 1h213l118 1v-66l-5-3-14-8-5-3-7-9-3-5v-2h-2l-3-6-10-16-12-19-11-17-15-24-8-13-4-10-2-64-1-83-2-50-1-41v-77l3-20 12-53 9-42 4-8 8-7 23-15 22-13 11-7 18-11 12-7 20-9 26-9 45-14 18-6h3l1 20 15 1h34l-6-7-5-3-2-2 1-4 33-15h4v-2z" fill="#D7D7D7"/>
<path transform="translate(815,83)" d="m0 0 6 1 25 12 19 9 11 6v6l32-1 7-8 6-7 5-1 5 5 11 17 16 26 12 18 2 7v12l-1 32 4 16 9 24 11 28 8 20v5l-1 1h-8l-16-4-9-3-6-17-8-17-5-8 1-9 4-10 1-4-29 1v31l-2 1-9-6-13-11-11-10-10-7-1 1h-30v13l11 8 15 10 19 13-2 2-43 8-1 19 23-5 11-3h7l-3 9-9 17-9 20-2 6 8-1h30l-1-4-4-2-3-3 1-4 10-9 20-20 3 1 4 41h29v-21l4-1 8 9 7 8 11 8 3 7 1 1v7l-7 9-9 10-8 7-3 2-1 5-1 48-1 28-2 86-1 62-8 16-13 21-12 19-9 15-12 19-9 15-9 13-5 5-11 6-17 10-20 11-49 28-5 3-58 1v21l-24 1h-93l-1-1v-53l-1-12-3-3-14-7-8-5-7-9-3-5v-2h-2l-3-6-10-16-12-19-11-17-15-24-8-13-4-10-2-64-1-83-2-50-1-41v-77l3-20 12-53 9-42 4-8 8-7 23-15 22-13 11-7 18-11 12-7 20-9 26-9 45-14 18-6h3l1 20 15 1h34l-6-7-5-3-2-2 1-4 33-15h4v-2z" fill="#30CDF5"/>
<path transform="translate(133,832)" d="m0 0 41 1 69 1 7 1v63l-34 1 1 44 19-1h14v-8l1-1v-36l1-62 4-1 114 1v93l-4 11v3h8l2-7 23-1 2 5v3l10-1-11-26-8-16h-7l-3 3-7 16-3 1v-84h117l1 15-1 48h-23l1 11h18l-1 5-11 23-3 5 10-1 16-31 1-12h-6v-62l1-1 117 1 1 62 1 6v21l-1 17h12v1h-11v8l12 3-5 5-10 21-8 19h10l2-7 7-1h14l3 3 2 4 7 1v-6l-13-30-2-4v-4l26-1v33l1 11 3 1h27l1-8h-20l-2-1v-36h27l2 7 1 28 1 10 31 1 1 3v69h-598v-70l2-3 2-12 9 1 4 5 1 5 12 1-3-6-4-4 1-5 3-5 2-3v-7l-3-7-3-4-1-5 16 2 1 1v43h9v-39l1-6h10v44l9 1v-26l4 2 7 9 5 6v2h2l4 5 7 2 3-1v-45h-99v-119z" fill="#D7D7D7"/>
<path transform="translate(879,375)" d="m0 0h5l5 6 7 9 8 10-2 19v9l-1 13 3 16 6 39 3 16 1 9 3 2-2 9-63 23-5 1h-17l-16-3-15-1 13 16 8 10 13 15 11 13 10 14 2 6 1 14 3 12 1 14 3 11v5l-19 10-34 20-7 4-8 1-124 1-10-7-23-13-24-14-3-2 1-17 3-16 3-18 4-16 9-9 10-13 13-15 9-11 11-13 1-3-20 3-10 2-16 1-30-10-34-13-7-3 5-28 4-24 3-19 3-23-1-18v-21l9-10 9-12 16 2 66 12 11 3 10 18 3 3v12l-12 90-4 23-1 7 5-2 14-12 8-6h61l6 4 10 9 12 9-1-7-2-7-9-59-6-48v-14l6-7 2-5 7-9 10-3 36-7z" fill="#0A8AC8"/>
<path transform="translate(815,83)" d="m0 0 6 1 25 12 19 9 11 6v6l32-1 7-8 6-7 5-1 5 5 11 17 16 26 12 18 2 7v12l-1 32 4 16 9 24 11 28 8 20v5l-1 1h-8l-16-4-9-3-6-17-8-17-5-8 1-9 4-10 1-4-29 1v31l-2 1-9-6-13-11-11-10-10-7-1 1h-30v13l11 8 15 10 19 13-2 2-43 8-1 19 23-5 11-3h7l-3 9-9 17-9 20-2 6 8-1h30l-1-4-4-2-3-3 1-4 10-9 20-20 3 1 4 41h29v-21l4-1 8 9 7 8 11 8 3 7 1 1v7l-7 9-9 10-8 7-3 2-1 5-1 15-2-4h-10l-16 2-7-1-9-7-12-7-4-1-5 12-2 9h-2l1-14 1-10-9-11-6-8-4-5-10 1-40 7-36 7-6 3-5 7-2-1 4-8-1-9-11-19-5-3-1 6-6 16-4 7 1 20 1 11 2 59 2 29 2 16h-61l1-39 3-69v-26l-3-6-13-16-16-16-3-1 1-6 4-5 9-15 12-19 11-19 12-19 1-2-8-1-44-14-10-3 1-3h9l53 6h10v-94l-32 8-34 7h-12v-2l41-11 34-9 3-1v-34l16 1h34l-6-7-5-3-2-2 1-4 33-15h4v-2z" fill="#D7D7D8"/>
<path transform="translate(1327,834)" d="m0 0h1v89l-1 29-17 1v3l-7 4-6 7-2 6v10l4 7 8 7 5 2 10-1 8-4 5-7 2-7-1-9-4-8-3-3v-6h15v45h10v-26l3 1 11 14 10 10 6 1 2-1 1-45h20l-2 4-6 5-2 5v6l11 7 12 4 1 5-5 3-7-1-7-7-6-2 2 9 7 6 6 2h7l8-4 4-6v-6l-2-4-8-5-14-5v-4l3-2 8 1 12 5-2-7-5-4v-4l-2-1 27 1v118h-359v-77l-3-1 3-3 1-8-1-5-6-2-16-6-3-2 1-4 7-1 17 5-1-7h2l1-6 9-2-9-1v-19l1-25 1-1h15l1 5v30h9v-35h16v-9h-43v-63h118v107h11l-1-26 4 2 11 14 8 9 8 1h2v-43h-10v25l-4-1-11-16-8-7-9-2v-61l1-2z" fill="#D7D7D7"/>
<path transform="translate(735,96)" d="m0 0h3v54l-7 3-67 18h-4v2l16-2 39-8 19-5h4l1 2v92l-1 1h-10l-53-6h-9l-1 2 10 2 28 9 19 6 5 1-2 5-11 18-13 22-12 19-8 13-3 4-1 4 4 1 19 19 12 16 1 3v26l-3 69-1 33-1 6h61l-3-16-2-29-2-59-2-25v-6l7-14 5-15 5 2 8 13 5 10v6l-4 8-2 8-5 5v14l7 54 8 53 3 11-1 3-4-2-22-18-2-1h-61l-22 18-6 2 1-8 6-37 10-76v-12l-6-8-6-12-16-4-66-12-11-1-10 13-7 8-1 13h-1l-1-9-22 13-10 5-1 6 2 10 1 12 1 25 2 15h-3l-2 9-2 16-3 16-7 38-5 25-4 25-2 7-2 10-2-1-2-8-2-57-1-83-2-50-1-41v-77l3-20 12-53 9-42 4-8 8-7 23-15 22-13 11-7 18-11 12-7 20-9 26-9 45-14z" fill="#03ADE8"/>
<path transform="translate(1449,595)" d="m0 0h1v304l-1 53h11v120h-13v-118h-25l2 5 5 5v5l-8-2-8-3-6 1-1 3 18 7 5 4 2 4v6l-4 6-6 4-3 1h-7l-7-3-7-6-1-9 6 1 7 7 7 1 4-2v-4l-12-4-11-7-1-1 1-9 6-7 4-4h-20v45l-5 2-5-2-11-11-8-10-4-4v26h-10v-45h-15l2 7 4 5 3 10-1 8-4 8-6 5-9 3-9-1-8-6-6-7-1-3v-10l4-9 9-8h3v-3l5-1h12v-117h-117l-1 63h7l6 4 8 9 8 12 3 1v-25h10v43l-7 1-5-3-12-14-7-9-2-1 1 8v18h-11l-1-44v-31l1-32h-118v63h43v9h-16l1 35-1 1h-9l-1-1v-34h-15l-2 44h15v1l-15 2-1 6h-2l1 7-8-1-9-3-7 1v3l13 5 11 5 2 5-2 10-11 7-11-1-7-4-5-5-1-6 1-1h6l7 6 2 1h8l1-5-14-5-9-6-1-1v-7l3-5 5-4 3-4 22-1v-29l-1-2-2 10-4 6-10 5h-11l-7-4-6-7-2-6v-25l1-1h9l1 25 3 8 3 2h7l5-4 1-2 1-28 2-2h10v-63l-116 1-1 62h-2v-63l-42 1h-76l1 24v39l-1 6 2 5v9l-4 8h-2l2 7 4 5v4l-10-1-4-5-3-5-7-1h-2v11h-9l-1-1-1-16v-17l1-9 8-1h12l10 3 2 1 1-66h-118v60h-2v-60h-118l1 62h31l1 1v8l-22 1-1 10h14l6 1v7l-2 1h-18l1 4v11h-12v-40l-1-4v-62h-117l-1 62h6v12l-9 17-7 14-1 1h-10l2-5 13-28-18 1-1-1v-11h23v-55l-1-7-116-1 1 83h2l1-5 7-14 2-1h7l5 8 11 25 4 11h-11l-2-7-23 1-2 7h-8l-1-4 4-11 1-93h-117l-1 74v24l-1 1-1 8-14 1h-19l-1-2v-42l7-1h27v-63l-76-1-39-1-2-1v40l-1 81 12-1h77l10 1 1 10v35l-6 2-6-3-3-3v-2h-2l-8-10-6-8-2-1v26h-9l-1-1v-32l1-12h-10l-1 45h-9l-1-43-15-2 2 5 4 6 1 4v7l-5 8-1 5 6 7v3h-10l-2-1-4-8-4-2-6-1-1 12-3 1-5-1-1-2v-27l1-15 3-3 1-29v-90h-71l-25-1v-1l98-1 49 1 97 1h213l118 1v-60l1-5h1l1 13v52h117v-21l2-1 56-1 24-14 29-16 10-6 27-15 9-6h3l2-4 5-5 11-17 9-15 1 2h51v-77l1-7h1v84l120-2 34 1v1h-33l-1 2v-2l-28 1-51 1h-41v117l61-1h416l1-236z" fill="#B0B6BA"/>
<path transform="translate(610)" d="m0 0h2v36l-1 81h45v1l-6 1-16 1h-23l1 23-18 11-24 15-15 9-12 8-9 7-4 6-9 39-8 36-7 34-1 9v77l2 67 1 24 1 83 2 64 5 11 8 14 28 44 9 14 8 12 4 7v3h2l6 10 5 6 22 12 2 2-1 66h-237l-2-2v-61l1-58h32l85 1 1-7 1-109-52-1-147-3v-1h84l97 2 17 1v-117l-68-2-83-2v-1h76l76 2v-117l-55-1-71-2-24-1v-1h47l75 2h27v-116l-52-1-77-3v-1h29l76 2 25 1-1-3 1-117h-28l-36-1v-1h49l15 1-1-2 2-111h2l-1 112 22 1 95 1v-76z" fill="#B1B6BA"/>
<path transform="translate(571,401)" d="m0 0h1l3 30-1 16-4 23-4 26-5 29-2 6 10 3 26 10 20 7 15 5 1 5-2 10-8 24-9 22-13 40-9 24-8 20-1 7 15 7 38 18 43 21 10 6 4 1 2-1h93l-2 1v2l2-1 2-4 23-10 47-23 23-11 11-5h4v25l3 1v6l-5 7-5 5-11 6-17 10-20 11-49 28-5 3-58 1v21l-24 1h-93l-1-1v-53l-1-12-3-3-14-7-8-5-7-9-3-5v-2h-2l-3-6-10-16-12-19-11-17-15-24-8-13-4-10v-7l2 4 1 4 2-9 2-7 5-30 4-20 8-44 3-18 2-15 3-3 2 1-1-2-2-13-1-25-2-18-1-8 4-4 12-6z" fill="#02ACE7"/>
<path transform="translate(735,96)" d="m0 0h3v54l-7 3-67 18h-4v2l16-2 39-8 19-5h4l1 2v92l-1 1h-10l-53-6h-9l-4 1-10-3-3-2v2l-10 8-30 26-11 9-11 10-11 9-11 10-11 9-3 3h-3v-40l-1-53-10-31-3-9v-4l10-8 16-10 28-17 16-10 17-10 16-8 20-8 21-7 39-12z" fill="#2FCDF5"/>
<path transform="translate(914,716)" d="m0 0h54l1 1-1 116-118 1-1-18v12l-1 5-10 1h-107l-1-1v-20l1-2 56-1 24-14 29-16 10-6 27-15 9-6h3l2-4 5-5 11-17 6-10z" fill="#D8D7D8"/>
<path transform="translate(849)" d="m0 0h122l-1 117 36-1h85v1l-94 2h-27v47l-4-5-7-10-13-21-12-19-6-9-5-1-6 5-7 9-2 2h-32l-1-6-26-13z" fill="#D8D7D7"/>
<path transform="translate(1330,834)" d="m0 0h118v103l-1 15h-53l-49 1-15-1-1-10v-73z" fill="#D9D8D8"/>
<path transform="translate(373,713)" d="m0 0 46 1 68 1 2 1 1 3v114h-118v-96z" fill="#D9D8D8"/>
<path transform="translate(492,716)" d="m0 0h70l7 11 4 7v3h2l6 10 5 6 22 12 2 2-1 66h-118v-58z" fill="#D8D7D8"/>
<path transform="translate(610,768)" d="m0 0h1l1 13v52h117v-21l2 1v20h117v-24l1-32h1l1 58v64l-1 6 2 5v9l-4 8h-2l2 7 4 5v4l-10-1-4-5-3-5-7-1h-2v11h-9l-1-1-1-16v-17l1-9 8-1h12l10 3 2 1 1-66h-118v60h-2v-60h-118l1 62h31l1 1v8l-22 1-1 10h14l6 1v7l-2 1h-18l1 4v11h-12v-40l-1-4v-62h-117l-1 62h6v12l-9 17-7 14-1 1h-10l2-5 13-28-18 1-1-1v-11h23v-55l-1-7-116-1 1 83h2l1-5 7-14 2-1h7l5 8 11 25 4 11h-11l-2-7-23 1-2 7h-8l-1-4 4-11 1-93h-117l-1 74v24l-1 1-1 8-14 1h-19l-1-2v-42l7-1h27v-63l-76-1-39-1-2-1v40l-1 81 12-1h77l10 1 1 10v35l-6 2-6-3-3-3v-2h-2l-8-10-6-8-2-1v26h-9l-1-1v-32l1-12h-10l-1 45h-9l-1-43-15-2 2 5 4 6 1 4v7l-5 8-1 5 6 7v3h-10l-2-1-4-8-4-2-6-1-1 12-3 1-5-1-1-2v-27l1-15 3-3 1-29v-90h-71l-25-1v-1l98-1 49 1 97 1h213l118 1v-60z" fill="#B0B5BA"/>
<path transform="translate(711,310)" d="m0 0 5 1 10 9 11 9 12 10 12 9 6 5 8 6 1 4-4-2-1 6-6 16-4 7 1 20 1 11 2 59 2 29 2 16h-61l1-39 3-69v-26l-3-6-13-16-16-16-3-1 1-6 4-5 1-2 5-3 10-11 9-11z" fill="#30CDF6"/>
<path transform="translate(571,401)" d="m0 0h1l3 30-1 16-4 23-4 26-5 29-1 6 2 28 3 16 1 22 3 15 2 30 2 6 1 22 3 24 2 21 2 20-1 3-4-1h-3l-3-6-10-16-12-19-11-17-15-24-8-13-4-10v-7l2 4 1 4 2-9 2-7 5-30 4-20 8-44 3-18 2-15 3-3 2 1-1-2-2-13-1-25-2-18-1-8 4-4 12-6z" fill="#30CDF5"/>
<path transform="translate(1387,953)" d="m0 0h20l-2 4-6 5-2 5v6l11 7 12 4 1 5-5 3-7-1-7-7-6-2 2 9 7 6 6 2h7l8-4 4-6v-6l-2-4-8-5-14-5v-4l3-2 8 1 12 5-2-7-5-4v-4l-2-1 27 1v118h-117l-1-1v-74l4-7 3-6 1-8-3-10-5-6v-6h15v45h10v-26l3 1 11 14 10 10 6 1 2-1z" fill="#D8D7D7"/>
<path transform="translate(823,234)" d="m0 0 5 1 8 7 14 9 9 7 18 12 19 13-2 2-43 8-1 19 23-5 11-3h7l-3 9-9 17-9 20-4 10-4 2-57 5-7-1-6-16-8-18-1-5 1-1 26-5 30-7 8-1 1-19-46 9-36 7h-5l-9-36-5-15 12-5 55-18z" fill="#0A8BC9"/>
<path transform="translate(655,954)" d="m0 0 1 3v30l1 11 3 1h27l1-8h-20l-2-1v-36h27l2 7 1 28 1 10 31 1 1 3v69h-117l-1-2 1-78 7-1h14l3 3 2 4 7 1v-6l-13-30-2-4v-4z" fill="#D8D7D7"/>
<path transform="translate(649,243)" d="m0 0 10 3 42 13 21 7 5 1-2 5-11 18-13 22-12 19-8 13-4 5-23-3-49-7-43-7-11-1v-3l12-11 11-9 11-10 11-9 11-10 11-9 10-9 11-9 8-7h2z" fill="#0A8BC9"/>
<path transform="translate(929,313)" d="m0 0 3 1 4 41h29v-21l4-1 8 9 7 8 11 8 3 7 1 1v7l-7 9-9 10-8 7-3 2-1 5-1 15-2-4h-10l-16 2-7-1-9-7-12-7-4-1-5 12-2 9h-2l1-14 1-10-9-11-6-8-4-5-10 1-40 7-36 7-6 3-5 7-2-1 4-8-1-9-11-19-4-6-3-3 24-1 4 10v2l17-1 47-4 4-2 2-4h38l-1-4-4-2-3-3 1-4 10-9 17-17z" fill="#D7D7D7"/>
<path transform="translate(492,118)" d="m0 0h22l60 1 35 1v25l-15 9-24 15-15 9-12 8-9 7-4 6-8 36-1 2h-29l-1-1v-82z" fill="#D8D7D7"/>
<path transform="translate(734,158)" d="m0 0h4l1 2v92l-1 1h-10l-36-4-5-2-22-3-16-2-3-5-6-17-10-24-4-8-5-2 4-4 49-9 17-4 9-3 23-5z" fill="#05AEE8"/>
<path transform="translate(915,529)" d="m0 0h1v11l-3 15-1 20-3 16-1 22-3 19-2 29-1 3-2 31-2 10-5-2-17-49-9-27-8-22-4-10-6-16-3-7-3-16 11-3 42-15 16-6h3z" fill="#02ADE8"/>
<path transform="translate(671,551)" d="m0 0h5l-1 4-12 14-9 11-13 15-10 13-7 7-4 16-3 18-3 16-1 17 25 14 17 10 16 10 5 5 7 16 4 13 1 10h5l-3 2-12-6-19-10-33-16-36-17-9-4-1-1 1-7 6-15 9-24 12-36 9-24 5-13 6-18 2-10 1-4 25-4z" fill="#30CEF6"/>
<path transform="translate(735,96)" d="m0 0h3v54l-7 3-30 8-55 15-19 5h-2v-7l8-34 1-9 12-6 26-9 45-14z" fill="#0A8BC9"/>
<path transform="translate(958,416)" d="m0 0h10l2 5v33l-1 28-2 86-1 62-4 8h-2l-1-15-5-26-12-64-8-47-2-4v-12l3-20 2-28 2-2 13-3z" fill="#02ADE8"/>
<path transform="translate(591,376)" d="m0 0 16 2 66 12 11 3 10 18 3 3v3l-26 5-63 10-24 4h-7l-4-30v-8l9-10z" fill="#01406F"/>
<path transform="translate(879,375)" d="m0 0h5l5 6 7 9 6 7v10l-1 8-1 20-13-1-35-6-51-8-15-2-7-2 1-5 4-5 2-5 7-9 10-3 36-7z" fill="#01406F"/>
<path transform="translate(630,952)" d="m0 0h127l12 2-2 6-1 2h-2l-1 4-10 14-2 7v11l-1 1h-8l-1-1-1-15-5-9v-2h-3l-1 17v83h-2l-1-72h-31l-1-1-1-10-1-28-1-6-27-1v36l22 1v8l-1 1h-29l-2-2-1-11v-32h-25l5 13 9 20 2 5v6l-2 1-7-2-2-6h-23v6l-2 2-10-1 1-5 11-25 7-13 7-3z" fill="#D6D6D7"/>
<path transform="translate(796,716)" d="m0 0h6l-2 5-5 9-6 19v9l-3 5h-2v-2l-96-1-4-17-6-16-4-7v-3z" fill="#72CDF6"/>
<path transform="translate(815,83)" d="m0 0 6 1 25 12 19 9 11 6-1 9-4 11-10 32-3 9h-5l-7-7-14-11-3-3v-2l-4-1-2-3-5-3-7-6-1-2-5-3-1-3-4-1-11-9-7-8-5-3-2-2 1-4 33-15h4v-2z" fill="#08AFE9"/>
<path transform="translate(692,616)" d="m0 0h88l11 6 26 17 16 10 4 4-14-1-32-3h-106l-33 3-15 1 5-4 11-7 15-10 11-7 12-8z" fill="#014170"/>
<path transform="translate(632,131)" d="m0 0h2v9l-8 34-1 1-1 7-27 18-14 10-22 15-11 7h-4l-12-36v-4l10-8 16-10 28-17 16-10 17-10z" fill="#72CDF6"/>
<path transform="translate(707,526)" d="m0 0h61l6 4 10 9 11 9-1 4-21 13-34 22-4-1-12-7-15-10-19-12-10-7 5-5 9-8 11-9z" fill="#01406F"/>
<path transform="translate(611,768)" d="m0 0 6 2 25 14 42 24 5 2 22 1h16l2 1v21l-24 1h-93l-1-1z" fill="#D7D7D8"/>
<path transform="translate(847,293)" d="m0 0h3v19l23-5 11-3h7l-3 9-9 17-9 20-4 10-4 2-57 5-7-1-6-16-8-18-1-5 1-1 26-5 30-7 8-1 1-19z" fill="#03ADE8"/>
<path transform="translate(492,597)" d="m0 0h16l2 1 1 34 5 11 8 14 28 44 6 10v3h-66l-1-1v-98z" fill="#D8D7D8"/>
<path transform="translate(869,168)" d="m0 0 7 1 9 7 20 14 18 13 4 4v64l-2 1-9-6-13-11-11-10-11-8-12-12-8-7-9-7 1-5 4-8 6-16 5-13z" fill="#34CDF6"/>
<path transform="translate(1208,945)" d="m0 0h1l2 8 11 1 1 11v17l-4 9-8 7-2 1h-13l-9-5-4-6-2-7v-26h-21l-3-1v36h20l1 1v7l-1 1-13 1h-15l-4-2-1-43-18-1 1 5 4 2 5 6 2 5v11l-3 6-4 5-8 5-9 1-8-3-8-7-4-8 1-11 4-8 7-6 2-2 2-1v-2h96z" fill="#D6D6D7"/>
<path transform="translate(923,100)" d="m0 0 5 1 14 21 16 26 12 18 2 7v12l-3 5-5 3-16 16-4 1-7-10-25-45-8-16-3-5v-8l5-8 9-10 6-7z" fill="#73CDF6"/>
<path transform="translate(692,680)" d="m0 0h92l8 15 6 18v2l-124 1 2-5 13-28z" fill="#01406F"/>
<path transform="translate(131,830)" d="m0 0 4 2h-2v40l-1 81 12-1h77l10 1 1 10v35l-6 2-6-3-3-3v-2h-2l-8-10-6-8-2-1v26h-9l-1-1v-32l1-12h-10l-1 45h-9l-1-43-15-2 2 5 4 6 1 4v7l-5 8-1 5 6 7v3h-10l-2-1-4-8-4-2-6-1-1 12-3 1-5-1-1-2v-27l1-15 3-3 1-29v-90h-71l-25-1v-1z" fill="#B1B6BA"/>
<path transform="translate(763,153)" d="m0 0 12 3 29 8 26 7 2 2-1 6-11 28-5 6-16 6-24 7-8 2h-5l-2-5 1-68z" fill="#73CDF6"/>
<path transform="translate(571,401)" d="m0 0h1l3 30-1 16-4 23-4 26-4 23-2 4h-2l-11-33-3-8v-5h-2l-1-4-1-25-2-18-1-8 4-4 12-6z" fill="#6FCDF6"/>
<path transform="translate(910,402)" d="m0 0 10 4 14 10 3 2h9l-2 2-6 2-2 28-1 6h-2l-1 11-1 13-11 33-3 8h-4l-3-22-3-17-6-37-1-9 2-12 3-11 4-10z" fill="#72CDF6"/>
<path transform="translate(968,213)" d="m0 0h1l5 17 10 27 11 28 8 20v5l-1 1h-8l-16-4-9-3-6-17-8-17-5-8 1-9 4-10 7-19 3-6z" fill="#0AB0E9"/>
<path transform="translate(492,238)" d="m0 0 28 1-1 9-11 49-3 20-1 39h-13v-117z" fill="#D8D7D7"/>
<path transform="translate(492,477)" d="m0 0h8l7 1 1 7 1 83 1 26-2 1h-17v-114z" fill="#D8D7D7"/>
<path transform="translate(428,955)" d="m0 0h23l7 3 6 5 4 8 1 7-3 10-6 7-8 4-6 1h-16l-3-1-1-2v-37z" fill="#026BAA"/>
<path transform="translate(492,358)" d="m0 0h12l2 77 1 26v14l-4 1-12-1v-77z" fill="#D8D7D7"/>
<path transform="translate(882,954)" d="m0 0h6l1 24v20l-1 1h-9l-1-18-2-1-2 6-7 13h-10l-6-11-4-8-1 18-1 1h-9l-1-1v-42l1-1h11l7 14 7 17 2 1 2-6 8-16 5-9z" fill="#025997"/>
<path transform="translate(350,898)" d="m0 0h5l1 1 1 7v36l-1 1h-8l-1-1v-20l-3 3-8 16-2 2h-8l-5-8-6-12-1 5v13l-1 1h-9l-1-1v-14l1-27 1-1h9l4 5 9 19 2 7 3-3 13-27z" fill="#014878"/>
<path transform="translate(1310,955)" d="m0 0h11l7 3 7 8 3 10-1 8-4 8-6 5-9 3-9-1-8-6-6-7-1-3v-10l4-9 9-8z" fill="#0266A4"/>
<path transform="translate(81,954)" d="m0 0h23l6 3 4 8 1 16 2 3-1 9-7 6-6 1h-14l-8-1-1-1v-43z" fill="#025E9C"/>
<path transform="translate(698,898)" d="m0 0 8 1 3 5 7 21 2-3 6-18 3-5h9l2 1 7 24v2h2l3-10 7-17 9-1 1 3-8 21-7 19-1 1h-9l-3-5-6-19v-2h-3l-2 9-6 14-3 3h-7l-3-3-6-19-6-18z" fill="#014474"/>
<path transform="translate(1113,955)" d="m0 0 11 1 8 6 4 5 2 5v11l-3 6-4 5-8 5-9 1-8-3-8-7-4-8 1-11 4-8 7-6z" fill="#026DAB"/>
<path transform="translate(579,898)" d="m0 0 11 1 8 6 4 5 2 5v11l-5 9-6 5-8 3-9-1-8-5-7-9-1-10 4-10 5-5 6-4z" fill="#01497A"/>
<path transform="translate(1176,898)" d="m0 0 10 1 8 5 5 6 2 5v12l-5 8-6 5-4 2-11 1-8-4-7-8-3-7 1-8 4-9 8-7z" fill="#014777"/>
<path transform="translate(976,898)" d="m0 0 10 1 7 4 6 7 2 6v10l-4 8-9 7-7 2-8-1-8-5-7-9-1-10 4-10 5-6 5-3z" fill="#014778"/>
<path transform="translate(929,313)" d="m0 0 3 1 4 39 4 24 1 7-2 2-6-4-19-19v-2l-4-2-5-5v-3l-4-2-3-3 1-4 10-9 17-17z" fill="#0AB0E9"/>
<path transform="translate(671,551)" d="m0 0h5l-1 4-12 14-9 11-13 15-10 13-4 4h-3l-1-12 2-5h2v-18l4-20 25-4z" fill="#6ECDF6"/>
<path transform="translate(967,333)" d="m0 0 4 2 11 13 7 6 6 4 3 7 1 1v7l-7 9-9 10-8 7-3 2-1 5-2-2-3-45-1-11v-14z" fill="#74CDF7"/>
<path transform="translate(824,898)" d="m0 0h12l10 3 5 5 1 4v9l-4 8h-2l2 7 4 5v4l-10-1-4-5-3-5-7-1h-2v11h-9l-1-1-1-16v-17l1-9z" fill="#014575"/>
<path transform="translate(952,955)" d="m0 0h24l6 4 4 5 2 10-5 9-1 1 1 7 5 6-1 2h-10l-4-4-4-6-1-1h-5l-1 1-1 9-1 1h-8l-1-1v-42z" fill="#0268A6"/>
<path transform="translate(798,551)" d="m0 0 16 1 16 3 13 1 2 6v19l1-2h2v22l3 12h-3l-8-10-11-13-12-14-13-16z" fill="#6FCDF6"/>
<path transform="translate(265,898)" d="m0 0h17l8 5 3 4 1 3v10l-5 8v5l5 6 1 3-6 1-6-2-5-8-2-1h-7v9l-1 1h-9l-1-18v-24z" fill="#014777"/>
<path transform="translate(127,954)" d="m0 0h17l9 2 6 7 2 6v7l-5 8-1 5 6 7v3h-10l-2-1-4-8-4-2-6-1-1 12-3 1-5-1-1-2v-27l1-15z" fill="#025D9A"/>
<path transform="translate(0,954)" d="m0 0h10l1 3v103l-1 12h-10z" fill="#D9D8D8"/>
<path transform="translate(1449,954)" d="m0 0h8l3 1v117h-10l-1-14z" fill="#D9D8D8"/>
<path transform="translate(1346,954)" d="m0 0h6l5 3 13 17 3 5 4 2v-26l1-1h7l2 2v42l-5 2-5-2-11-11-8-10-4-4v26h-10v-42z" fill="#02619F"/>
<path transform="translate(1208,899)" d="m0 0h10l8 7 11 15 1 2 3 1v-25h10v43l-7 1-5-3-12-14-7-9-2-1 1 8v18h-11z" fill="#014575"/>
<path transform="translate(311,955)" d="m0 0h9l5 5 16 20 2 1v-25l1-1h8l1 3v40l-2 2-8-1-5-5v-2h-2l-11-14-5-5v26h-9l-1-1v-42z" fill="#0265A3"/>
<path transform="translate(1448)" d="m0 0h2v595l-2 1-39-1-76-1v-1h84l31 1z" fill="#B0B5B9"/>
<path transform="translate(1450,834)" d="m0 0h10v118h-11v-87z" fill="#D9D8D8"/>
<path transform="translate(227,954)" d="m0 0 4 1 1 8v35l-6 2-6-3-3-3v-2h-2l-8-10-6-8-2-1v26h-9l-1-1v-32l1-11h9l5 5 16 20 2 1v-26z" fill="#025997"/>
<path transform="translate(623,954)" d="m0 0h5l3 5 9 20 6 14v6l-2 1-7-2-2-6h-23v6l-2 2-10-1 1-5 11-25 7-13z" fill="#025A98"/>
<path transform="translate(385,898)" d="m0 0h7l5 8 11 25 4 11h-11l-2-7-23 1-2 7h-8l-1-4 7-18 11-22z" fill="#014979"/>
<path transform="translate(918,954)" d="m0 0 7 1 5 10 12 29 1 5h-9l-3-5-1-2h-21l-3 7h-9l1-6 13-31 3-6z" fill="#025A98"/>
<path transform="translate(782,898)" d="m0 0h6l5 6 9 20 6 16v2h-10l-2-6-23-1-1 6-1 1h-10l2-6 13-31 4-6z" fill="#014676"/>
<path transform="translate(729,255)" d="m0 0h2v63l-1 5-9-6-7-6-4 1-10 11-8 10-6 6h-2l2-5 12-19 15-25 11-18 3-6z" fill="#D3D6D8"/>
<path transform="translate(511,955)" d="m0 0h14l8 5 1 6-1 1h-6l-4-2h-11l-5 5-2 4v8l4 6 6 3 8-1 4-2v-4h-8l-3-1-1-6 3-2h17l3 5-1 9-3 5-8 5-3 1h-10l-10-5-7-8-2-4v-7l4-10 6-7z" fill="#0268A7"/>
<path transform="translate(379,955)" d="m0 0h10l9 4 3 3-1 4-1 1-7-1-3-1h-11l-5 5-2 9 3 7 5 4h11l4-4-1-2-11-1-1-5 3-3h18l2 3v11l-6 7-10 4-11-1-8-4-5-6-3-6v-9l5-10 5-5z" fill="#0268A7"/>
<path transform="translate(258,955)" d="m0 0h10l8 3 3 5-2 4h-5l-3-2-9-1-6 3-3 5v10l3 6 4 2h11l4-3v-3h-10l-2-1v-6l3-2h16l2 2 1 10-3 6-5 4-8 3h-8l-10-4-7-8-2-4v-11l5-10 7-6z" fill="#0267A5"/>
<path transform="translate(223,898)" d="m0 0h26v9l-22 1-1 6h19l1 1v6l-3 2-16 1v10l22 1v7l-13 1h-19l-1-2v-42z" fill="#014676"/>
<path transform="translate(1066,955)" d="m0 0h11l10 7 1 6-8-1-9-3-7 1v3l13 5 11 5 2 5-2 10-11 7-11-1-7-4-5-5-1-6 1-1h6l7 6 2 1h8l1-5-14-5-9-6-1-1v-7l3-5 6-5z" fill="#0268A6"/>
<path transform="translate(870,898)" d="m0 0h23l1 1-1 8-22 1-1 6h16l4 1v7l-3 1-16 1v10l22 1 1 1v5l-1 1-17 1h-12l-3-2v-42z" fill="#014776"/>
<path transform="translate(932,898)" d="m0 0 9 1 6 3 3 4v5h-6l-5-3h-11l-1 4 18 6 5 3 3 6v5l-5 7-6 3h-14l-6-4-6-7 1-5 7 1 7 6 7 1 4-4-1-2-17-6-7-6v-8l6-7z" fill="#014B7C"/>
<path transform="translate(534,898)" d="m0 0h7l8 3 4 5 1 4-1 1h-6l-5-3h-11v4l7 3 10 3 5 4 3 6-1 5-3 5-7 4-10 1-8-3-7-7-1-6 5-1 6 3 3 4 9 1 3-3 1-3-5-1-12-4-9-7v-8l3-5 7-4z" fill="#014879"/>
<path transform="translate(1182,955)" d="m0 0h10v24l2 8 3 3h9l4-3 2-8 1-24h9l1 10v17l-4 9-8 7-2 1h-13l-9-5-4-6-2-7v-25z" fill="#026AA9"/>
<path transform="translate(1274,898)" d="m0 0 9 1 6 3v2h2l2 3v4l-9-1-3-2h-11l-1 4 18 6 6 5 2 5-3 9-8 5-9 1-9-3-7-7-1-6 1-1 7 1 6 6 2 1h6l4-3 1-3-12-3-10-5-4-5 1-9 7-6z" fill="#014777"/>
<path transform="translate(805,955)" d="m0 0h9l9 6 2 5-4 2-13-4-6 1-1 4 11 3 10 5 4 4 1 5-3 8-5 4-6 2-10-1-8-5-5-7 1-4h7l5 6 2 1h9l2-2v-3l-10-3-8-4-7-6v-6l4-6 6-4z" fill="#0264A3"/>
<path transform="translate(422,900)" d="m0 0 5 1 9 9 2 3 4-2 9-9 3-2h6v8l-12 12 3 5 8 8 1 4-4 4-5-1-8-8-2-3-4 2-10 9h-6l-2-3 1-5 9-9 2-1-1-4-10-9v-2h-2l1-5z" fill="#014778"/>
<path transform="translate(1409,955)" d="m0 0 10 1 9 6 1 7-8-2-8-3-6 1-1 3 18 7 5 4 2 4v6l-4 6-6 4-3 1h-7l-7-3-7-6-1-9 6 1 7 7 7 1 4-2v-4l-12-4-11-7-1-1 1-9 6-7z" fill="#0264A3"/>
<path transform="translate(1045,899)" d="m0 0h9l1 25 3 8 3 2h7l5-4 1-2 1-28 1-1h10v22l-2 10-4 6-10 5h-11l-7-4-6-7-2-6v-25z" fill="#014A7B"/>
<path transform="translate(611,898)" d="m0 0h32l1 1v8l-22 1-1 10h14l6 1v7l-2 1h-18l1 4v11h-12v-43z" fill="#014776"/>
<path transform="translate(576,954)" d="m0 0h24l4 1-1 7-2 2h-13v34l-1 1h-9l-1-1v-19l1-15h-12l-3-1-1-2v-6z" fill="#026AA8"/>
<path transform="translate(847,950)" d="m0 0 5 1h20l12 1h28l6 2-4 2-21-1-4-1v13h-1v-13l-9 2-11 20-5 11-3-1-11-26-2-4-11-1v-1l9-1z" fill="#D5D5D6"/>
<path transform="translate(992,955)" d="m0 0h41v7l-2 2h-14v35h-11v-34l-12-1-3-3v-5z" fill="#025896"/>
<path transform="translate(652,898)" d="m0 0h39v9h-15v35h-10l-1-1v-23l1-10-15-1v-8z" fill="#014474"/>
<path transform="translate(1241,954)" d="m0 0h11l17 1 1 7-2 2-14 1v33l-1 1h-9l-1-1 1-34h-14l-2-2v-7z" fill="#02619F"/>
<path transform="translate(724,954)" d="m0 0h8l7 9 6 9 5-5 8-11 4-2h7l-2 6-1 2h-2l-1 4-10 14-2 7v11l-1 1h-8l-1-1-1-15-6-11-3-3-3-5-4-5z" fill="#025A98"/>
<path transform="translate(1098,898)" d="m0 0h35v9h-16l1 35-1 1h-9l-1-1v-34l-15-1v-8z" fill="#014C7E"/>
<path transform="translate(1328,922)" d="m0 0h1l1 20v10h25l48-1 20 1-1 6-7-2h-9l1-3h-20l-1 3-1-1h-7l-1 26-5-2-6-9-8-10-4-4-2-1h-6l-2 2v-3h-15l1 4h-3l-6-2-11-1v-2l5-1h12v-29z" fill="#B1B6BA"/>
<path transform="translate(656,954)" d="m0 0h10v36l22 1v8l-1 1h-29l-2-2-1-11v-30z" fill="#026AA9"/>
<path transform="translate(703,954)" d="m0 0 3 1v36h23v8l-14 1h-18l-1-1-1-10v-33l1-1z" fill="#025492"/>
<path transform="translate(1146,955)" d="m0 0h10l1 35h20l1 1v7l-1 1-13 1h-15l-4-2v-41z" fill="#0269A8"/>
<path transform="translate(1009,899)" d="m0 0h10v35h22v8l-4 1h-26l-3-1v-42z" fill="#014A7B"/>
<path transform="translate(466,899)" d="m0 0h31v11l-9 17-7 14-1 1h-10l2-5 13-28-18 1-1-1z" fill="#014474"/>
<path transform="translate(966,119)" d="m0 0h2v42l-4-2-15-24-8-13v-2z" fill="#D8D7D7"/>
<path transform="translate(11,831)" d="m0 0h1v121h55l12 1v1h-66v118h-3v-118h-10v-2h10v-90z" fill="#B1B6BA"/>
<path transform="translate(836,955)" d="m0 0h11l6 12v2h-2l-1 5 2 14-2-2-3-6-1 18-1 1h-9l-1-1v-42z" fill="#0267A6"/>
<path transform="translate(1175,907)" d="m0 0h10l6 5 2 10-3 7-6 5-7 1-5-2-6-7v-10l3-5z" fill="#D1D5D6"/>
<path transform="translate(974,907)" d="m0 0h10l6 4 2 3 1 7-2 7-7 6-9 1-5-4-4-7v-8l4-6z" fill="#D0D5D7"/>
<path transform="translate(630,952)" d="m0 0h127l5 2-5 5-10 13h-3l-7-10-5-7-8-1-1 3v-2h-20l-7 1-1 5h-1l-1-6h-38l-26 1-3-3z" fill="#AEB7BC"/>
<path transform="translate(577,907)" d="m0 0h10l8 7 1 8-3 7-5 4-5 2-6-1-5-4-3-6v-8l3-5z" fill="#D3D5D7"/>
<path transform="translate(1111,964)" d="m0 0h11l5 4 2 4v10l-6 7-3 2h-8l-6-4-3-5-1-6 4-8z" fill="#D5D5D6"/>
<path transform="translate(1313,963)" d="m0 0 8 1 6 5 1 2v11l-4 6-4 3h-9l-6-5-3-5v-7l4-6 5-4z" fill="#D5D5D6"/>
<path transform="translate(969)" d="m0 0h2l-1 117 36-1h85v1l-94 2h-27v47l-3-4 1-43-2 1h-26l-1-2 23-1 6-1v-69z" fill="#B1B6BA"/>
<path transform="translate(437,964)" d="m0 0h14l5 3 3 7-1 9-6 7-3 1h-11l-2-4v-22z" fill="#D4D4D5"/>
<path transform="translate(956,959)" d="m0 0 5 1 1 3-1 2-1 13h14l2-2 1-4h2l1-4 2 3v4h3l-1 7-2 2 1 7 5 6-1 2h-10l-4-4-4-6-2-2-5-2-1-3-5-1-2 1-2-13 1-9z" fill="#025997"/>
<path transform="translate(428,955)" d="m0 0h23l7 3 6 5 4 8 1 7-3 10h-2l-1-3-4-4v-7l-2-3-1-4-5-2h-16v21l-2-4v-9l-3-7-2-1z" fill="#0268A7"/>
<path transform="translate(80,955)" d="m0 0h23l2 2-11 2-2 2 10 1v1l-12 1-1 11-2 5 2 2v7l9 3-3 5 10 1-2 2h-14l-8-1-1-1z" fill="#025896"/>
<path transform="translate(90,964)" d="m0 0h13l2 2v3h2l1 5 4 2-1 5-4 1h-8l-4-1-1 1 12 1 1 1v5l-2 2-11 1-5-2-1-1v-7l-2-4 2-3z" fill="#0262A1"/>
<path transform="translate(623,954)" d="m0 0h5l3 5 9 20 6 14v6l-2 1-7-2-2-6-2-1v-3l-1-3 1-10-2-5-4 1 3 7-1 5h-11l-1-3 4-8 1-6-1-2h2l1-6 1-1-5-1z" fill="#0267A5"/>
<path transform="translate(1277,955)" d="m0 0h9l1 1v42l-1 1h-10v-43z" fill="#026AA8"/>
<path transform="translate(478,955)" d="m0 0h9v38l-1 6h-9l-1-1v-41z" fill="#026EAD"/>
<path transform="translate(227,907)" d="m0 0h22l1 11v13l-2 3-21 1-1-1v-10l1-1 16-1 2-1v-6h-16l-3-1v-6z" fill="#D1D3D4"/>
<path transform="translate(536,917)" d="m0 0 12 1 5 4 3 6-1 5-3 5-7 4-10 1-8-3-7-7-1-6 5-1 6 3 3 4 9 1 3-3 1-3-5-1 2-3-6-3z" fill="#014A7B"/>
<path transform="translate(969,454)" d="m0 0h1l1 20h37l84-1h36v2l-132 2h-26v19l-2 90-1 5h-1v-23l2-86z" fill="#B0B6BA"/>
<path transform="translate(545,955)" d="m0 0h10l1 40-1 4h-10l-1-6z" fill="#0266A5"/>
<path transform="translate(190,955)" d="m0 0h9l5 5 1 4h-3l-1 2v-2h-2l2 5-2 1v29h-9l-1-1v-32z" fill="#025E9B"/>
<path transform="translate(1141,898)" d="m0 0h7l2 1v43l-1 1-9-1v-43z" fill="#014A7B"/>
<path transform="translate(932,898)" d="m0 0 9 1 6 3 3 4v5h-6l-5-3h-11l-1 4 2 1 1 4 5 2v2h4v4l3 2-8-1-10-4-7-6v-8l6-7z" fill="#014574"/>
<path transform="translate(293,955)" d="m0 0h8v43l-1 1h-9v-43z" fill="#0267A6"/>
<path transform="translate(1213,955)" d="m0 0h9l1 10v17l-4 9-4 4-5-1-3 4h-6l-3-2-2-2 1-1 8-1 5-5 2-8z" fill="#025694"/>
<path transform="translate(336,951)" d="m0 0 19 1v2h-2l-1 4v-3l-8 1-1 25-4-2-12-15-5-6v-2l-11-1 4-2 6-1h10z" fill="#D3D3D4"/>
<path transform="translate(852,211)" d="m0 0 9 6 17 16 3 4h-23l-7-1-1-5 1-18z" fill="#D9D8D8"/>
<path transform="translate(1378,954)" d="m0 0h7l2 2v42l-3 1v-3l-4-4v-2l-4-2-1-3h-2l1-3-1-2 4 1v-26z" fill="#0369A7"/>
<path transform="translate(172,954)" d="m0 0 8 1-1 44h-9v-31l1-13z" fill="#025E9C"/>
<path transform="translate(126,955)" d="m0 0h8l1 2h-2v5l3 1v17l-2 1v18l-3 1-5-1-1-2v-27z" fill="#015C98"/>
<path transform="translate(1208,945)" d="m0 0h1l2 8 11 1v1h-9v24l-1 5h-1v-27l-2-1-16-1v7h-1v-7l-11 1-21-1-3-1v21h-1v-20h-10l-1 2-1-2-18-1 1 4-8-2h-10l-1-2h2v-2h96z" fill="#B1B6BA"/>
<path transform="translate(1274,898)" d="m0 0 9 1 6 3v2h2l2 3v4l-9-1-3-2h-11l-1 4 1 3 1 6-5 1-6-5-1-2 1-9 7-6z" fill="#014776"/>
<path transform="translate(1056,593)" d="m0 0h97v1l-31 1-151 2-4 5-1-8z" fill="#B1B6BA"/>
<path transform="translate(1241,954)" d="m0 0h11l17 1 1 7-2 2h-14l3-2-5-1-7 2-2 1h-13l-2-2v-7z" fill="#0269A8"/>
<path transform="translate(1355,954)" d="m0 0h23l-1 27-5-2-6-9-8-10z" fill="#D3D4D5"/>
<path transform="translate(200,954)" d="m0 0h20l2 2v25l-4-2-9-11-7-9z" fill="#D3D4D6"/>
<path transform="translate(1066,955)" d="m0 0h11l10 7 1 6-8-1-9-3-7 1-3 1 1 5-4 4-4-2v-7l3-5 6-5z" fill="#025F9C"/>
<path transform="translate(848,171)" d="m0 0 2 1 1 6v16l1 19-1 18v5l30 1v2h-30v7l-1 5-2-2v-7l-1-3-12-2-2-2 15 1z" fill="#B1B6BA"/>
<path transform="translate(696,955)" d="m0 0 2 1v39l11 1 1-3-3-2h22v8l-14 1h-18l-1-1-1-10v-33z" fill="#026BA9"/>
<path transform="translate(1409,955)" d="m0 0 10 1 9 6 1 7-8-2-8-3-6 1-5 3-2 4h-2l-1 2-1-1 1-9 6-7z" fill="#025E9C"/>
<path transform="translate(1072,354)" d="m0 0h60v1l-40 1-1 21-2 4v-25l-22 1-55 1h-18l-1-3h26z" fill="#B1B6BA"/>
<path transform="translate(1310,955)" d="m0 0h11l7 3 7 8-1 3-4-1-4 1-5-4-8-1-7 4-1-4 1-3-4 2-4 3 2-4 7-6z" fill="#0268A6"/>
<path transform="translate(1362,971)" d="m0 0h6l7 11-1 2 1 1 6 7 4 5-1 3-7-2-11-11-5-7-1-7h2z" fill="#025795"/>
<path transform="translate(1113,955)" d="m0 0 11 1 8 6 4 5-1 3-7-2-5-2-1-1h-11l-6 5v-5l2-4-4 1-4 2 4-5 5-3z" fill="#026BA9"/>
<path transform="translate(742,954)" d="m0 0h16v3l-10 14-3 2-4-5-6-10v-3z" fill="#D4D5D6"/>
<path transform="translate(379,955)" d="m0 0h10l9 4 3 3-1 4-1 1-7-1-3-1h-11l-4 2-1-5h-2l-4 4-2-1 4-5z" fill="#026AA8"/>
<path transform="translate(310,956)" d="m0 0h1l2 19 5 5 1-8h1v27h-9l-1-1z" fill="#026CAB"/>
<path transform="translate(961,964)" d="m0 0h13l3 2 1 6-2 5-2 2h-12l-2-1v-13z" fill="#CFD1D2"/>
<path transform="translate(258,955)" d="m0 0h10l8 3 3 5-2 4h-5l-3-2-9-1-6 3-2 2-1-5h2l-1-3-4 2h-3l7-6z" fill="#026BA9"/>
<path transform="translate(511,955)" d="m0 0h14l8 5 1 6-1 1h-6l-4-2h-11l-3 1v-6l-5 2-4 2 4-5z" fill="#0269A8"/>
<path transform="translate(729,965)" d="m0 0 2 1 3 6h-2l-1 17v83h-2l-1-72h-13v-1h14v-8l-3-1h3l-1-8v-16z" fill="#B1B6BA"/>
<path transform="translate(1008,957)" d="m0 0h5l1 5-1 4-2 2 2 10-1 10-1 7-2 1v3h-3v-34l-12-1v-1h13l1-1h-4l1-4z" fill="#026AA8"/>
<path transform="translate(81,954)" d="m0 0h23l6 3 3 5v15l-6-2v-6h-2l-2-4-11-1-1-5 12-3-22-1z" fill="#0268A6"/>
<path transform="translate(826,907)" d="m0 0h12l3 1 2 3-1 8-4 3h-12z" fill="#D0D4D6"/>
<path transform="translate(136,964)" d="m0 0h11l5 5-1 7-4 3h-11l-1-1v-13z" fill="#D6D5D5"/>
<path transform="translate(269,907)" d="m0 0h11l4 2 1 7-3 5-1 1h-12l-1-2v-12z" fill="#D2D4D5"/>
<path transform="translate(1104,960)" d="m0 0 4 1-2 6-3 11 3 7 2 4-1 3-5-2-1-3-4-2v-4h-2v-10l3-6z" fill="#02609E"/>
<path transform="translate(227,954)" d="m0 0 4 1v30l-2-3h-5l-1-2-1-25z" fill="#025592"/>
<path transform="translate(145,952)" d="m0 0h76l10 1v2l-10 1-1-1h-19l-2 1-9-1h-18l-1 13h-1l-1-12-15-2-1 3-9-2z" fill="#ACB7BE"/>
<path transform="translate(902,398)" d="m0 0 2 2-2 19v9l-1 8h-9l-27-4-38-6-16-3-12-2-3-2 10 1 51 8 43 7v-20z" fill="#0267A5"/>
<path transform="translate(951,970)" d="m0 0h2l2 10 6 2 2 3 4 2-5 2-1 9-1 1h-8l-1-1z" fill="#0268A7"/>
<path transform="translate(965,542)" d="m0 0h1l1 12-1 76-2 3-1-1v-46z" fill="#38CDF6"/>
<path transform="translate(847,950)" d="m0 0 5 1h20l12 1h28l6 2-4 2-21-1-4-1v13h-1v-13l-9 1-6-1-18 1-8 1-11-1v-1l9-1z" fill="#B1B6BA"/>
<path transform="translate(611,998)" d="m0 0h1v74h-3v-52l1-20z" fill="#B1B6BA"/>
<path transform="translate(791,983)" d="m0 0h7l5 6 9 2v1l-8 1v2h9l4-1h2l1 3-7 3-10-1-8-5-5-7z" fill="#0269A7"/>
<path transform="translate(791,325)" d="m0 0h5l-4 2-7 1 9 20 5 15 1 1h10l48-4 7-2 2-7 1 4-2 5-4 2-57 5-7-1-6-16-8-18-1-5 1-1z" fill="#5ACDF6"/>
<path transform="translate(1396,982)" d="m0 0 6 1 7 7 4 2h-2v3l11 1 1 2-5 2h-7l-7-3-7-6z" fill="#0269A7"/>
<path transform="translate(250 1e3)" d="m0 0 3 1v71h-3z" fill="#B1B6BA"/>
<path transform="translate(1213,955)" d="m0 0h9l1 10v17l-4 9-5 4-1-3 2-3 2-4 1-5 1-15 1-1 1-8-6 3-1-3v27h-2z" fill="#026CAA"/>
<path transform="translate(1089,986)" d="m0 0h1v86h-2v-77l-3-1 3-3z" fill="#B1B6BA"/>
<path transform="translate(1329,966)" d="m0 0 2 2h5l2 8-1 8-3 6-2 1-1-6-3-3-1-14z" fill="#025C9A"/>
<path transform="translate(90,964)" d="m0 0h13l3 5-1 5-5 1h-10l-1-5z" fill="#D3D3D4"/>
<path transform="translate(1185,956)" d="m0 0 3 1-1 6 1 21 2 6-3 1-3-1-1-2v-7l1-4h-2v-19z" fill="#025593"/>
<path transform="translate(546,963)" d="m0 0 5 2v14h-2v7l-1 2 3 1 3 4-1 6h-7z" fill="#025492"/>
<path transform="translate(205,962)" d="m0 0 4 5 7 8 1 3-4 2-3-3v-3h-4l-1 4-6-5v12h-1v-15l2-2-1-4h6z" fill="#0265A4"/>
<path transform="translate(370,999)" d="m0 0 2 1 1 72h-3z" fill="#B1B6BA"/>
<path transform="translate(850,995)" d="m0 0h1v77h-2l-1-72z" fill="#B1B6BA"/>
<path transform="translate(587,956)" d="m0 0h13l2 1v6l-1 1h-14v5l-1-2h-5l-2-5 9-2z" fill="#025B98"/>
<path transform="translate(795,235)" d="m0 0 3 2-16 2-43 1v-3l4-1z" fill="#B1B6BA"/>
<path transform="translate(1127,967)" d="m0 0 8 1v2h2l1 2v11l-2 4h-5l-2-5-1-10z" fill="#025E9B"/>
<path transform="translate(1394,951)" d="m0 0 29 1-1 6-7-2h-9l1-3h-20l-1 3-1-1-30-1 1-2z" fill="#B0B6BA"/>
<path transform="translate(1329,995)" d="m0 0 1 2v75h-3v-73h-2v-2z" fill="#B0B6BA"/>
<path transform="translate(222,961)" d="m0 0h1l1 21 6-1 1-18h1v35l-2 1v-8l-4 1-5-5-1-6h2z" fill="#026FAE"/>
<path transform="translate(805,955)" d="m0 0h9l9 6 2 5-4 2-13-4 3-7h-8v3l-7 2h-3l8-6z" fill="#0270AE"/>
<path transform="translate(1208,945)" d="m0 0h1l2 8 11 1v1h-9v24l-1 5h-1v-27l-2-1-16-1v7h-1v-7h-10v-2l24-1z" fill="#A7B8C2"/>
<path transform="translate(808,956)" d="m0 0 4 1-2 6-10 2v2l-4 2-1 5 3 1-2 1-5-4v-6l6-6h6v-3z" fill="#025795"/>
<path transform="translate(401,952)" d="m0 0h27l26 1 3 4-6-1h-24l-26-1-5-1v-1z" fill="#B1B6BA"/>
<path transform="translate(91,983)" d="m0 0h15l1 1v5l-2 2-11 1-5-2v-6z" fill="#D1D2D3"/>
<path transform="translate(127,954)" d="m0 0h17l-2 2 6 1 2 6-1 1h-13l-4-2 2-6-7-1z" fill="#026DAB"/>
<path transform="translate(729,255)" d="m0 0h2v63l-1 5-2-2v-53l-1-2z" fill="#B1B6BA"/>
<path transform="translate(460,967)" d="m0 0 3 1h3l2 3 1 7-3 10h-2l-1-3-4-4v-11z" fill="#025A98"/>
<path transform="translate(491,934)" d="m0 0h1v16l1 1 11 1v2h-12l-4 1v14h-1v-14l-9 1-2 1v-2h-15v-2l11-1 10 1 6 1 2-18z" fill="#B1B6BA"/>
<path transform="translate(466,899)" d="m0 0h19v1l-6 1 1 3-2 4-5 2h-6l-1-1z" fill="#025996"/>
<path transform="translate(738,116)" d="m0 0 16 1 35 1v2h-50v15h-1z" fill="#B1B6BA"/>
<path transform="translate(386,912)" d="m0 0 4 1 4 8v5h-13l1-6z" fill="#C8D0D4"/>
<path transform="translate(336,951)" d="m0 0 19 1v2h-2l-1 4v-3l-8 1-2 1-2-1-17-1-1 3v-2l-11-1 4-2 6-1h10z" fill="#B1B6BA"/>
<path transform="translate(919,968)" d="m0 0 4 4 3 6-1 5h-11l-1-4z" fill="#CDCFD1"/>
<path transform="translate(783,911)" d="m0 0 3 1 5 9v5h-13l1-5z" fill="#D1D2D3"/>
<path transform="translate(623,968)" d="m0 0 4 3 3 7-1 5h-11l-1-3z" fill="#CDCFD0"/>
<path transform="translate(703,954)" d="m0 0 3 1v36h-2l-1-4v-12l-2-9v-5h2l-4-4v-2z" fill="#0279B7"/>
<path transform="translate(1426,985)" d="m0 0 4 2-1 6-4 4-14-1-1-2 1-2 10-2 3-4z" fill="#025896"/>
<path transform="translate(1270,913)" d="m0 0 9 2 3 3-1 5 1 2-6 1-8-3 2-3-1-5z" fill="#015691"/>
<path transform="translate(311,956)" d="m0 0h4l1 3-1 5 4 5v13l-4-5-3-2-1-10z" fill="#025492"/>
<path transform="translate(367,950)" d="m0 0 7 1 5 2h15l1 4-6-1h-19l-13-1-1-2z" fill="#B1B6BA"/>
<path transform="translate(929,913)" d="m0 0 16 5 4 3-1 3-3 2h-6l-2-4-4-2v-2l-4-1z" fill="#015490"/>
<path transform="translate(918,954)" d="m0 0 7 1 5 10-4 2-2 3-2 2-3-3-1-3 1-4v-3h2v-3h-6z" fill="#026BAA"/>
<path transform="translate(250,897)" d="m0 0h1l1 12v24l-1 1-1 8h-1v-7h-16v-1l15-1 1-5v-30z" fill="#98B4C0"/>
<path transform="translate(687,169)" d="m0 0 4 1-27 6-12 2h-13l4-2 14-4h15z" fill="#64CDF6"/>
<path transform="translate(502,985)" d="m0 0 6 2 4 3 8 1 9-3-2 5-8 3h-6l-3-3-5-1-4-5z" fill="#025A98"/>
<path transform="translate(867,355)" d="m0 0h37l3 2-10 1-30 1z" fill="#B1B6BA"/>
<path transform="translate(965,571)" d="m0 0h1v59l-2 3-1-1 1-32z" fill="#68CDF6"/>
<path transform="translate(884,304)" d="m0 0h7l-3 9-9 17-9 20-2 1 2-6 7-16 9-17 2-6-9 2h-6l3-2z" fill="#5ACDF6"/>
<path transform="translate(611,898)" d="m0 0h1l1 24 3 1-1 5h-2l-1 14h-2v-43z" fill="#0270AD"/>
<path transform="translate(1304,960)" d="m0 0 3 1-1 8-2 2-4 1-2 5-3-1 1-9z" fill="#025795"/>
<path transform="translate(630,952)" d="m0 0h26l10 1v1l-11 1-26 1-3-3z" fill="#B1B6BA"/>
<path transform="translate(993,956)" d="m0 0h6v2l1-2h13l-4 2-4 1-1 3h4l-1 2-14-1-1-6z" fill="#025492"/>
<path transform="translate(256,952)" d="m0 0h11l11 3 2 6-2 2-2-4-8-3h-10l-6 1-2-2h2v-2z" fill="#B0B6BA"/>
<path transform="translate(133,979)" d="m0 0h13l-3 2 5 2-1 3-12 1-1 4z" fill="#0262A1"/>
<path transform="translate(840,967)" d="m0 0 3 3 2 6v14l-2-4-2-2v-3h-2l-1-5v-8z" fill="#025492"/>
<path transform="translate(791,325)" d="m0 0h5l-4 2-7 1 9 20 5 15 7 2-1 2-7-1-6-16-8-18-1-5 1-1z" fill="#54CDF6"/>
<path transform="translate(929,313)" d="m0 0 3 1 4 39 3 19v5l-2-3-4-27-3-31-2-2z" fill="#56CDF6"/>
<path transform="translate(886,985)" d="m0 0h2v12l-2 1h-6v-12h2v2l3-1z" fill="#025492"/>
<path transform="translate(609,930)" d="m0 0h1v12h12v1h-11v8l12 3-4 3-1-2-5-1-2 7h-2z" fill="#ADB5BB"/>
<path transform="translate(820,988)" d="m0 0 2 1-1 3h2l-1 4h-3v-2l-4 2-1-1v1h-10v-4l12-2z" fill="#025694"/>
<path transform="translate(696,955)" d="m0 0 2 1v29l-1 10h-1l-1-6v-33z" fill="#027EBB"/>
<path transform="translate(1104,960)" d="m0 0 4 1-2 6-2 5-3 1-5 4 1-8 2-5z" fill="#025593"/>
<path transform="translate(652,243)" d="m0 0h13l26 4v1l-25-1-4 1-10-3z" fill="#64CDF6"/>
<path transform="translate(572,411)" d="m0 0h1l2 20-1 16-1 8h-1v-18l-1-20z" fill="#30CEF6"/>
<path transform="translate(740,982)" d="m0 0h2l1 15h2l-2-2 2-5 6-3v11l-1 1h-8l-1-1z" fill="#026CAA"/>
<path transform="translate(428,956)" d="m0 0h3v3l2 1v3l3 1-1 22-2-4v-9l-3-7-2-1z" fill="#025492"/>
<path transform="translate(199,952)" d="m0 0h22l10 1v2l-10 1-1-1h-19l-2 1-3-1v-2z" fill="#B0B6BA"/>
<path transform="translate(992,955)" d="m0 0h41v7l-1-4h-5l-1-1v1h-5v-2h-21l-1 3-3-2h-3l-1 3 2 1-2 2-1-7z" fill="#0267A6"/>
<path transform="translate(632,131)" d="m0 0h2v9l-2 4-2-4-12 2 8-8z" fill="#37CDF6"/>
<path transform="translate(781,951)" d="m0 0h15l1 2-2 1h-25l-1 2v-2h-7l4-2z" fill="#B1B6BA"/>
<path transform="translate(958,416)" d="m0 0h10l2 5v33h-1l-1-7-1-30h-9z" fill="#59CCF6"/>
<path transform="translate(505,960)" d="m0 0h4l1 4-4 7h-6l-1-4 1-3z" fill="#025795"/>
<path transform="translate(730,952)" d="m0 0h27l5 2-3 2-1-1h-16l-6 1-1 2-3-3-3-2z" fill="#B1B6BA"/>
<path transform="translate(932,417)" d="m0 0 10 1 4 1-8 3-2 28-1 6h-1v-35z" fill="#3ACDF6"/>
<path transform="translate(970,188)" d="m0 0h1v32l-2-2-2-3 1-25z" fill="#B1B6BA"/>
<path transform="translate(816,899)" d="m0 0h1l1 16v21l-1 5h-1l-1-16v-17z" fill="#026BA8"/>
<path transform="translate(936,355)" d="m0 0h30v3h-29z" fill="#B1B6BA"/>
<path transform="translate(875,117)" d="m0 0h32l-4 5v-2h-11l-17-1z" fill="#B1B6BA"/>
<path transform="translate(1083,960)" d="m0 0 4 2 1 6-8-1-9-3 3-1 1-2h6z" fill="#0269A7"/>
<path transform="translate(666,911)" d="m0 0h1l2 9-1 2 1 6-2 12-2 1v-23z" fill="#016FAC"/>
<path transform="translate(372,960)" d="m0 0 3 1-1 4v4l-7 4-3 1 1-8z" fill="#025593"/>
<path transform="translate(903,398)" d="m0 0 2 1 2 5 1 3-3 8-2 9h-2l1-14z" fill="#B1B6BA"/>
<path transform="translate(724,954)" d="m0 0h8l5 6v5l-2-1v-2l-3-1-1-3h-2v6l-5-5z" fill="#026FAD"/>
<path transform="translate(586,974)" d="m0 0h1v25h-5v-4l2-4v-3l1-12z" fill="#025492"/>
<path transform="translate(729,965)" d="m0 0 2 1 3 6h-2l-1 17h-2l-1-7v-16z" fill="#A8B7BE"/>
<path transform="translate(250,960)" d="m0 0 3 1-1 9-3 5-1-4-3-3 2-5z" fill="#025694"/>
<path transform="translate(788,354)" d="m0 0h6l1 3-21 2-4-4z" fill="#B1B6BA"/>
<path transform="translate(787,382)" d="m0 0 2 1 1 9-4 8-2 8-4 1 3-10 4-8z" fill="#58CDF6"/>
<path transform="translate(805,952)" d="m0 0h7l6 2 4 3-1 3-7-4h-13l-1-2z" fill="#AAB8C0"/>
<path transform="translate(818,959)" d="m0 0 4 1 3 6-4 2-10-4v-1l6-2z" fill="#025F9D"/>
<path transform="translate(1259,926)" d="m0 0 1 2 4 1 3 6 1 3 2 1-4 1-7-7-1-6z" fill="#015995"/>
<path transform="translate(641,989)" d="m0 0 4 2 1 2v6l-2 1-5-2-1-5 1-3z" fill="#015793"/>
<path transform="translate(967,336)" d="m0 0 5 3 2 2-1 5-5 2-2-10z" fill="#30CEF6"/>
<path transform="translate(606,983)" d="m0 0h2v3h-2l-1 11 4 1 1-4 2 1-1 5-11-1 1-5z" fill="#0272B0"/>
<path transform="translate(478,988)" d="m0 0 4 2v2h3v7h-6l-1-1z" fill="#025492"/>
<path transform="translate(1407,952)" d="m0 0h16l-1 6-7-2h-9z" fill="#A8B7BF"/>
<path transform="translate(536,917)" d="m0 0 12 1 2 2h-2v4l-7-1-4-2z" fill="#015491"/>
<path transform="translate(453,990)" d="m0 0h2l-1 4-3 1h-9l-2 1-4-2v-2z" fill="#025492"/>
<path transform="translate(339,990)" d="m0 0h4l4 4 1 5h-5l-5-5z" fill="#025E9C"/>
<path transform="translate(624,175)" d="m0 0h1v6l13-4 10 1v1l-23 4-4 2 2-3z" fill="#30CEF6"/>
<path transform="translate(735,96)" d="m0 0h3v41h-1l-1-38z" fill="#02ADE8"/>
<path transform="translate(878,976)" d="m0 0 2 2v20l8-1v-10h1v11l-1 1h-9l-1-18-2-1z" fill="#0280BD"/>
<path transform="translate(968,213)" d="m0 0h1l3 10-1 4-3-7h-2l-6 16-1-3 5-14z" fill="#4AC9F4"/>
<path transform="translate(396,986)" d="m0 0 2 1-2 5-5 3-9-1-1-2 9-2 5-2z" fill="#025694"/>
<path transform="translate(959,988)" d="m0 0h1v11l-6-1-1-4 1-2h2v-2h3z" fill="#025492"/>
<path transform="translate(491,920)" d="m0 0h1l1 10-6 3-4 4 2-5z" fill="#99B5C1"/>
<path transform="translate(1210,993)" d="m0 0 4 3-5 3h-13l-3-2 5-1h7 1z" fill="#0273B0"/>
<path transform="translate(1378,955)" d="m0 0 3 1-1 22-2 1z" fill="#015390"/>
<path transform="translate(502,985)" d="m0 0 6 2 4 3v2l-5 1-5-4-1-3z" fill="#02609E"/>
<path transform="translate(1044,952)" d="m0 0h11l4 2-11 1h-10l-3-2z" fill="#B1B6BA"/>
<path transform="translate(933,982)" d="m0 0h4l1 4-1 3-6 1v-6h2z" fill="#0263A2"/>
<path transform="translate(548,956)" d="m0 0h6v7h-5l-1-1z" fill="#015290"/>
<path transform="translate(690,334)" d="m0 0v3l-7 8-4 3 1-4 3-5 5-3z" fill="#74CDF7"/>
<path transform="translate(858,195)" d="m0 0 1 4-3 7v5l3 4-5-2-2-2 1-5 4-8z" fill="#74CDF7"/>
<path transform="translate(1079,990)" d="m0 0v3l-3 1-1 2h-7l1-4 9-1z" fill="#025492"/>
<path transform="translate(97,993)" d="m0 0 5 1 3 2v2h-15v-1h5z" fill="#03609F"/>
<path transform="translate(1100,971)" d="m0 0 4 2-3 9-4-5 2-4z" fill="#0266A5"/>
<path transform="translate(1279,987)" d="m0 0 1 3 1 6 3-1v4h-5l-1-1-1-8z" fill="#025492"/>
<path transform="translate(885,979)" d="m0 0 3 3v3h-2l-1 3h-3l-1-4z" fill="#03609F"/>
<path transform="translate(145,952)" d="m0 0h12l-3 2-1 3-9-2z" fill="#AAB8C0"/>
<path transform="translate(929,313)" d="m0 0 3 1 1 11v13h-1l-2-22-2-2z" fill="#50CDF6"/>
<path transform="translate(668,169)" d="m0 0 3 1 1 3h-12v-2z" fill="#AECEDE"/>
<path transform="translate(1348,992)" d="m0 0 3 2h2v5l-7-1z" fill="#025492"/>
<path transform="translate(930,968)" d="m0 0 3 4 2 6-3 1-2-2-1-7z" fill="#026CAA"/>
<path transform="translate(762,954)" d="m0 0h7l-2 6-5-1 1-2-3-2z" fill="#0278B6"/>
<path transform="translate(845,567)" d="m0 0h1l2 11-3 4-1-1z" fill="#2ECCF5"/>
<path transform="translate(848,363)" d="m0 0 3 1v11h-3z" fill="#B1B6BA"/>
<path transform="translate(1119,991)" d="m0 0 4 2-5 3h-5l-1-4z" fill="#025492"/>
<path transform="translate(783,399)" d="m0 0h2l1 3-3 7h-3z" fill="#2FC3F1"/>
<path transform="translate(172,956)" d="m0 0h7v5h-2v-2h-4l-1 4z" fill="#013F6D"/>
<path transform="translate(790,391)" d="m0 0 3 1-6 9-2-1z" fill="#B5B9BD"/>
<path transform="translate(1057,983)" d="m0 0 5 1 2 4-4 1-2-1z" fill="#025E9C"/>
<path transform="translate(865,981)" d="m0 0h1v7l-2 2h-3l-1-4 3 1z" fill="#0271AF"/>
<path transform="translate(466,900)" d="m0 0h5l-2 6-3 1z" fill="#013F6D"/>
<path transform="translate(791,325)" d="m0 0h5l-4 2-7 1 1 4h-2l-1-5 1-1z" fill="#57CDF6"/>
</svg>
